<svg id="Capa_1" enable-background="new 0 0 512 512" height="512" viewBox="0 0 512 512" width="512" xmlns="http://www.w3.org/2000/svg"><path d="m52.889 472.856c-28.533 0-52.405-22.614-52.881-51.143-.437-26.18 18.465-48.03 43.359-52.204 4.988-.836 8.666-5.107 8.666-10.164v-263.204h449.666c5.69 0 10.302 4.612 10.302 10.302v356.112c0 5.69-4.612 10.302-10.302 10.302h-448.81z" fill="#e4f6ff"/><path d="m493.268 96.141v347.577c0 5.747-4.659 10.406-10.406 10.406h-430.166c-18.632 0-34.277-15.247-33.959-33.877.309-18.098 15.127-32.725 33.296-32.725h8.325c5.747 0 10.407-4.659 10.407-10.406v-280.975h-18.732v263.205c0 5.057-3.678 9.328-8.666 10.164-24.894 4.173-43.796 26.023-43.359 52.204.476 28.53 24.348 51.143 52.881 51.143h448.809c5.69 0 10.302-4.612 10.302-10.302v-356.112c0-5.69-4.612-10.302-10.302-10.302z" fill="#d3effb"/><path d="m0 420.824c0-25.756 18.714-47.142 43.286-51.301 5.017-.849 8.746-5.094 8.746-10.183v-309.888c0-6.731-6.348-11.643-12.871-9.983-22.511 5.728-39.161 26.133-39.161 50.428z" fill="#e2dfe2"/><path d="m233.21 408.336h-125.087c-5.69 0-10.302-4.612-10.302-10.302v-249.965c0-5.69 4.612-10.302 10.302-10.302h125.087c5.69 0 10.302 4.612 10.302 10.302v249.965c0 5.69-4.612 10.302-10.302 10.302z" fill="#e2dfe2"/><path d="m129.041 273.156v-52.242c0-5.69 4.612-10.302 10.302-10.302h62.648c5.69 0 10.302 4.612 10.302 10.302v52.242c0 5.69-4.612 10.302-10.302 10.302h-62.648c-5.69 0-10.302-4.612-10.302-10.302z" fill="#e27a66"/><path d="m243.512 179.393h-145.691v-31.324c0-5.69 4.612-10.302 10.302-10.302h125.087c5.69 0 10.302 4.612 10.302 10.302z" fill="#90d8f9"/><path d="m191.48 382.761h-41.626c-4.268 0-7.726-3.459-7.726-7.726s3.459-7.726 7.726-7.726h41.626c4.268 0 7.726 3.459 7.726 7.726s-3.459 7.726-7.726 7.726z" fill="#665e66"/><path d="m212.291 273.19-29.891-26.155 29.891-26.155c-.018-5.674-4.622-10.268-10.3-10.268h-1.431l-29.893 26.156-29.893-26.156h-1.431c-5.678 0-10.282 4.594-10.3 10.268l29.891 26.154-29.891 26.154c.018 5.674 4.622 10.268 10.3 10.268h1.431l29.893-26.156 29.893 26.156h1.431c5.678.002 10.282-4.592 10.3-10.266z" fill="#dd544f"/><path d="m262.243 336.973h-49.951c-4.268 0-7.726-3.459-7.726-7.726s3.459-7.726 7.726-7.726h49.951c1.478 0 2.681-1.202 2.681-2.68v-61.398c0-9.999 8.135-18.133 18.133-18.133h18.731c4.268 0 7.726 3.459 7.726 7.726s-3.459 7.726-7.726 7.726h-18.731c-1.478 0-2.68 1.203-2.68 2.681v61.398c0 9.998-8.135 18.132-18.134 18.132z" fill="#e27a66"/><path d="m212.293 306.951h-83.253c-4.268 0-7.726 3.459-7.726 7.726v31.22c0 4.267 3.459 7.726 7.726 7.726h83.253c4.268 0 7.726-3.459 7.726-7.726v-31.22c0-4.267-3.459-7.726-7.726-7.726z" fill="#aad540"/><path d="m437.178 408.336h-125.088c-5.69 0-10.302-4.612-10.302-10.302v-249.965c0-5.69 4.612-10.302 10.302-10.302h125.087c5.69 0 10.302 4.612 10.302 10.302v249.965c.001 5.69-4.612 10.302-10.301 10.302z" fill="#e2dfe2"/><path d="m333.008 273.156v-52.242c0-5.69 4.612-10.302 10.302-10.302h62.648c5.69 0 10.302 4.612 10.302 10.302v52.242c0 5.69-4.612 10.302-10.302 10.302h-62.648c-5.69 0-10.302-4.612-10.302-10.302z" fill="#f4dd45"/><path d="m447.48 179.393h-145.691v-31.324c0-5.69 4.612-10.302 10.302-10.302h125.087c5.69 0 10.302 4.612 10.302 10.302z" fill="#90d8f9"/><g fill="#665e66"><path d="m416.261 322.404h-83.253c-4.268 0-7.726-3.459-7.726-7.726s3.459-7.726 7.726-7.726h83.253c4.268 0 7.726 3.459 7.726 7.726 0 4.266-3.459 7.726-7.726 7.726z"/><path d="m416.261 352.583h-83.253c-4.268 0-7.726-3.459-7.726-7.726s3.459-7.726 7.726-7.726h83.253c4.268 0 7.726 3.459 7.726 7.726 0 4.266-3.459 7.726-7.726 7.726z"/><path d="m374.634 382.761h-41.626c-4.268 0-7.726-3.459-7.726-7.726s3.459-7.726 7.726-7.726h41.626c4.268 0 7.726 3.459 7.726 7.726s-3.459 7.726-7.726 7.726z"/></g><path d="m416.259 273.19-29.891-26.155 29.891-26.155c-.018-5.674-4.622-10.268-10.3-10.268h-1.431l-29.893 26.156-29.893-26.156h-1.431c-5.678 0-10.282 4.594-10.3 10.268l29.891 26.155-29.892 26.155c.018 5.674 4.622 10.268 10.3 10.268h1.431l29.893-26.156 29.893 26.156h1.431c5.679 0 10.282-4.594 10.301-10.268z" fill="#ecc32e"/></svg>